<svg xmlns="http://www.w3.org/2000/svg" viewBox="0 0 128 128" fill="none">
  <defs>
    <linearGradient id="lamp-gold" x1="24" y1="16" x2="96" y2="112" gradientUnits="userSpaceOnUse">
      <stop stop-color="#F8D66B"/>
      <stop offset="0.5" stop-color="#E0B047"/>
      <stop offset="1" stop-color="#A56E1D"/>
    </linearGradient>
  </defs>
  <rect x="61" y="12" width="6" height="20" rx="3" fill="url(#lamp-gold)"/>
  <path d="M28 60C28 46.745 38.745 36 52 36H76C89.255 36 100 46.745 100 60V62H28V60Z" fill="url(#lamp-gold)"/>
  <path d="M22 62H106L92 84H36L22 62Z" fill="url(#lamp-gold)"/>
  <rect x="60" y="84" width="8" height="18" rx="4" fill="url(#lamp-gold)"/>
  <path d="M48 104C48 100.686 50.686 98 54 98H74C77.314 98 80 100.686 80 104V106H48V104Z" fill="url(#lamp-gold)"/>
  <circle cx="46" cy="108" r="3" fill="url(#lamp-gold)"/>
  <circle cx="58" cy="114" r="2.5" fill="url(#lamp-gold)"/>
  <circle cx="72" cy="111" r="2.5" fill="url(#lamp-gold)"/>
  <circle cx="84" cy="106" r="3" fill="url(#lamp-gold)"/>
</svg>
